<mxfile host="app.diagrams.net" modified="2024-03-05T09:18:26.652Z" agent="Mozilla/5.0 (X11; Linux x86_64; rv:123.0) Gecko/20100101 Firefox/123.0" etag="RqQEhzlF2NR2epoc9CRC" version="24.0.1" type="github">
  <diagram name="Page-1" id="7WejNFQeKnBh1G3PvrK2">
    <mxGraphModel dx="1337" dy="831" grid="1" gridSize="10" guides="1" tooltips="1" connect="1" arrows="1" fold="1" page="1" pageScale="1" pageWidth="850" pageHeight="1100" math="0" shadow="0">
      <root>
        <mxCell id="0" />
        <mxCell id="1" parent="0" />
        <mxCell id="RSNqgubcbZyPDviOjuEd-22" value="" style="rounded=0;whiteSpace=wrap;html=1;" vertex="1" parent="1">
          <mxGeometry x="340" y="210" width="180" height="320" as="geometry" />
        </mxCell>
        <mxCell id="RSNqgubcbZyPDviOjuEd-1" value="&lt;b&gt;Postgresql&lt;/b&gt; DB" style="shape=datastore;whiteSpace=wrap;html=1;" vertex="1" parent="1">
          <mxGeometry x="393" y="550" width="65" height="60" as="geometry" />
        </mxCell>
        <mxCell id="RSNqgubcbZyPDviOjuEd-3" value="" style="endArrow=classic;html=1;rounded=0;exitX=0.5;exitY=0;exitDx=0;exitDy=0;" edge="1" parent="1" source="RSNqgubcbZyPDviOjuEd-1">
          <mxGeometry relative="1" as="geometry">
            <mxPoint x="440" y="540" as="sourcePoint" />
            <mxPoint x="425" y="480" as="targetPoint" />
          </mxGeometry>
        </mxCell>
        <mxCell id="RSNqgubcbZyPDviOjuEd-4" value="&lt;div&gt;&lt;b&gt;Prisma ORM&lt;/b&gt;&lt;/div&gt;" style="edgeLabel;resizable=0;html=1;;align=center;verticalAlign=middle;" connectable="0" vertex="1" parent="RSNqgubcbZyPDviOjuEd-3">
          <mxGeometry relative="1" as="geometry" />
        </mxCell>
        <mxCell id="RSNqgubcbZyPDviOjuEd-5" value="" style="aspect=fixed;sketch=0;html=1;dashed=0;whitespace=wrap;fillColor=#2875E2;strokeColor=#ffffff;points=[[0.005,0.63,0],[0.1,0.2,0],[0.9,0.2,0],[0.5,0,0],[0.995,0.63,0],[0.72,0.99,0],[0.5,1,0],[0.28,0.99,0]];shape=mxgraph.kubernetes.icon2;prIcon=api" vertex="1" parent="1">
          <mxGeometry x="400" y="402" width="50" height="48" as="geometry" />
        </mxCell>
        <mxCell id="RSNqgubcbZyPDviOjuEd-6" value="Backend API" style="text;html=1;align=center;verticalAlign=middle;whiteSpace=wrap;rounded=0;" vertex="1" parent="1">
          <mxGeometry x="395" y="450" width="60" height="30" as="geometry" />
        </mxCell>
        <mxCell id="RSNqgubcbZyPDviOjuEd-14" value="&lt;div&gt;&lt;b&gt;Nestjs&lt;/b&gt;&lt;/div&gt;&lt;div&gt;&lt;b&gt;TypeScript&lt;/b&gt;&lt;/div&gt;&lt;div&gt;&lt;b&gt;Yarn&lt;br&gt;&lt;/b&gt;&lt;/div&gt;" style="text;html=1;align=center;verticalAlign=middle;whiteSpace=wrap;rounded=0;" vertex="1" parent="1">
          <mxGeometry x="450" y="407" width="60" height="38" as="geometry" />
        </mxCell>
        <mxCell id="RSNqgubcbZyPDviOjuEd-15" value="" style="verticalLabelPosition=bottom;aspect=fixed;html=1;shape=mxgraph.salesforce.web2;" vertex="1" parent="1">
          <mxGeometry x="395" y="240" width="60" height="60" as="geometry" />
        </mxCell>
        <mxCell id="RSNqgubcbZyPDviOjuEd-16" value="Frontend App" style="text;html=1;align=center;verticalAlign=middle;whiteSpace=wrap;rounded=0;" vertex="1" parent="1">
          <mxGeometry x="395" y="300" width="60" height="30" as="geometry" />
        </mxCell>
        <mxCell id="RSNqgubcbZyPDviOjuEd-20" value="&lt;div&gt;&lt;b&gt;NEXTjs&lt;/b&gt;&lt;/div&gt;&lt;div&gt;&lt;b&gt;Chakra UI&lt;br&gt;&lt;/b&gt;&lt;/div&gt;&lt;div&gt;&lt;b&gt;Yarn&lt;br&gt;&lt;/b&gt;&lt;/div&gt;" style="text;html=1;align=center;verticalAlign=middle;whiteSpace=wrap;rounded=0;" vertex="1" parent="1">
          <mxGeometry x="450" y="251" width="70" height="38" as="geometry" />
        </mxCell>
        <mxCell id="RSNqgubcbZyPDviOjuEd-23" value="" style="shape=curlyBracket;whiteSpace=wrap;html=1;rounded=1;labelPosition=left;verticalLabelPosition=middle;align=right;verticalAlign=middle;" vertex="1" parent="1">
          <mxGeometry x="310" y="250" width="20" height="200" as="geometry" />
        </mxCell>
        <mxCell id="RSNqgubcbZyPDviOjuEd-27" value="&lt;b&gt;NX&lt;/b&gt; Monorepo?" style="text;html=1;align=center;verticalAlign=middle;resizable=0;points=[];autosize=1;strokeColor=none;fillColor=none;" vertex="1" parent="1">
          <mxGeometry x="210" y="335" width="100" height="30" as="geometry" />
        </mxCell>
        <mxCell id="RSNqgubcbZyPDviOjuEd-28" value="" style="endArrow=classic;html=1;rounded=0;" edge="1" parent="1">
          <mxGeometry width="50" height="50" relative="1" as="geometry">
            <mxPoint x="520" y="349.67" as="sourcePoint" />
            <mxPoint x="600" y="350" as="targetPoint" />
          </mxGeometry>
        </mxCell>
        <mxCell id="RSNqgubcbZyPDviOjuEd-29" value="" style="shape=curlyBracket;whiteSpace=wrap;html=1;rounded=1;labelPosition=left;verticalLabelPosition=middle;align=right;verticalAlign=middle;direction=south;" vertex="1" parent="1">
          <mxGeometry x="600" y="305" width="520" height="20" as="geometry" />
        </mxCell>
        <mxCell id="RSNqgubcbZyPDviOjuEd-30" value="CI/CD" style="text;html=1;align=center;verticalAlign=middle;resizable=0;points=[];autosize=1;strokeColor=none;fillColor=none;" vertex="1" parent="1">
          <mxGeometry x="765" y="275" width="60" height="30" as="geometry" />
        </mxCell>
        <mxCell id="RSNqgubcbZyPDviOjuEd-32" value="" style="shape=image;html=1;verticalAlign=top;verticalLabelPosition=bottom;labelBackgroundColor=#ffffff;imageAspect=0;aspect=fixed;image=https://cdn3.iconfinder.com/data/icons/marketing-filled-outline-3/64/Quality-128.png" vertex="1" parent="1">
          <mxGeometry x="590" y="320" width="78" height="78" as="geometry" />
        </mxCell>
        <mxCell id="RSNqgubcbZyPDviOjuEd-33" value="&lt;div&gt;Static Analysis:&lt;/div&gt;&lt;div&gt;&lt;b&gt;Quality by Code Climate&lt;/b&gt;&lt;/div&gt;&lt;div&gt;(on PR)&lt;br&gt;&lt;/div&gt;&lt;div&gt;&lt;br&gt;&lt;/div&gt;" style="text;html=1;align=center;verticalAlign=middle;resizable=0;points=[];autosize=1;strokeColor=none;fillColor=none;" vertex="1" parent="1">
          <mxGeometry x="549" y="391" width="160" height="70" as="geometry" />
        </mxCell>
        <mxCell id="RSNqgubcbZyPDviOjuEd-34" value="" style="image;aspect=fixed;perimeter=ellipsePerimeter;html=1;align=center;shadow=0;dashed=0;fontColor=#4277BB;labelBackgroundColor=default;fontSize=12;spacingTop=3;image=img/lib/ibm/devops/build_test.svg;" vertex="1" parent="1">
          <mxGeometry x="740" y="325" width="60" height="60" as="geometry" />
        </mxCell>
        <mxCell id="RSNqgubcbZyPDviOjuEd-35" value="" style="endArrow=classic;html=1;rounded=0;" edge="1" parent="1">
          <mxGeometry width="50" height="50" relative="1" as="geometry">
            <mxPoint x="660" y="349.67" as="sourcePoint" />
            <mxPoint x="740" y="350" as="targetPoint" />
          </mxGeometry>
        </mxCell>
        <mxCell id="RSNqgubcbZyPDviOjuEd-36" value="&lt;div&gt;Build&lt;/div&gt;&lt;div&gt;and run unit tests:&lt;/div&gt;&lt;div&gt;&lt;b&gt;Mocha&lt;/b&gt;, &lt;b&gt;Chai&lt;/b&gt;, &lt;b&gt;Jest&lt;/b&gt;,&amp;nbsp;&lt;/div&gt;&lt;div&gt;&lt;b&gt;Enzyme&lt;/b&gt;, &lt;b&gt;Supertest&lt;/b&gt;?&lt;/div&gt;&lt;div&gt;(on PR)&lt;br&gt;&lt;/div&gt;" style="text;html=1;align=center;verticalAlign=middle;resizable=0;points=[];autosize=1;strokeColor=none;fillColor=none;" vertex="1" parent="1">
          <mxGeometry x="699" y="381" width="140" height="90" as="geometry" />
        </mxCell>
        <mxCell id="RSNqgubcbZyPDviOjuEd-37" value="" style="image;aspect=fixed;html=1;points=[];align=center;fontSize=12;image=img/lib/azure2/general/Web_Test.svg;" vertex="1" parent="1">
          <mxGeometry x="880" y="330" width="72" height="72" as="geometry" />
        </mxCell>
        <mxCell id="RSNqgubcbZyPDviOjuEd-38" value="" style="endArrow=classic;html=1;rounded=0;" edge="1" parent="1">
          <mxGeometry width="50" height="50" relative="1" as="geometry">
            <mxPoint x="800" y="349.67" as="sourcePoint" />
            <mxPoint x="880" y="350" as="targetPoint" />
          </mxGeometry>
        </mxCell>
        <mxCell id="RSNqgubcbZyPDviOjuEd-39" value="&lt;div&gt;Run Integration and&amp;nbsp;&lt;/div&gt;&lt;div&gt;E2E tests:&lt;/div&gt;&lt;div&gt;&lt;b&gt;Testcontainers&lt;/b&gt; (backend)&lt;/div&gt;&lt;div&gt;&lt;b&gt;Cypress&lt;/b&gt; (frontend)&lt;/div&gt;&lt;div&gt;(on PR)&lt;br&gt;&lt;/div&gt;" style="text;html=1;align=center;verticalAlign=middle;resizable=0;points=[];autosize=1;strokeColor=none;fillColor=none;" vertex="1" parent="1">
          <mxGeometry x="830" y="391" width="160" height="90" as="geometry" />
        </mxCell>
        <mxCell id="RSNqgubcbZyPDviOjuEd-40" value="" style="image;aspect=fixed;perimeter=ellipsePerimeter;html=1;align=center;shadow=0;dashed=0;spacingTop=3;image=img/lib/active_directory/internet_cloud.svg;" vertex="1" parent="1">
          <mxGeometry x="1020" y="330.6" width="80" height="50.4" as="geometry" />
        </mxCell>
        <mxCell id="RSNqgubcbZyPDviOjuEd-41" value="" style="endArrow=classic;html=1;rounded=0;" edge="1" parent="1">
          <mxGeometry width="50" height="50" relative="1" as="geometry">
            <mxPoint x="940" y="349.67" as="sourcePoint" />
            <mxPoint x="1020" y="350" as="targetPoint" />
          </mxGeometry>
        </mxCell>
        <mxCell id="RSNqgubcbZyPDviOjuEd-42" value="&lt;div&gt;Deploy to cloud platform:&lt;/div&gt;&lt;div&gt;&lt;b&gt;Render&lt;/b&gt;&lt;/div&gt;&lt;div&gt;(deploy on merge to&lt;/div&gt;&lt;div&gt;&amp;nbsp;Master branch)&lt;br&gt;&lt;/div&gt;" style="text;html=1;align=center;verticalAlign=middle;resizable=0;points=[];autosize=1;strokeColor=none;fillColor=none;" vertex="1" parent="1">
          <mxGeometry x="980" y="375" width="160" height="70" as="geometry" />
        </mxCell>
        <mxCell id="RSNqgubcbZyPDviOjuEd-44" value="" style="endArrow=classic;startArrow=classic;html=1;rounded=0;" edge="1" parent="1">
          <mxGeometry width="50" height="50" relative="1" as="geometry">
            <mxPoint x="425.17" y="400" as="sourcePoint" />
            <mxPoint x="425" y="340" as="targetPoint" />
          </mxGeometry>
        </mxCell>
        <mxCell id="RSNqgubcbZyPDviOjuEd-45" value="&lt;div&gt;Expansion:&lt;/div&gt;&lt;div&gt;Auth? - Auth0, Okta?&lt;/div&gt;&lt;div&gt;Logging?&lt;/div&gt;&lt;div&gt;Caching?&lt;br&gt;&lt;/div&gt;" style="text;html=1;align=center;verticalAlign=middle;resizable=0;points=[];autosize=1;strokeColor=none;fillColor=none;" vertex="1" parent="1">
          <mxGeometry x="200" y="165" width="140" height="70" as="geometry" />
        </mxCell>
      </root>
    </mxGraphModel>
  </diagram>
</mxfile>
